<svg xmlns="http://www.w3.org/2000/svg" width="128" height="128" viewBox="0 0 128 128" shape-rendering="crispEdges">
<rect width="128" height="128" rx="20" fill="#102431"/>
<path d="M16 110V94h16V78h16V62h16V46h16V30h16V14h16v96z" fill="#284851"/>
<path d="M37 31h48v8h8v42h-8v10H37V81h-8V39h8z" fill="#779098"/>
<path d="M39 29h42v8h8v34H33V37h6z" fill="#e5ead6"/>
<path d="M40 40h43v24H40z" fill="#283b4b"/>
<path d="M44 43h34v16H44z" fill="#dba756"/>
<path d="M48 43h24v5H48z" fill="#ffdf91"/>
<path d="M40 75h40v10H40z" fill="#bf795b"/>
<path d="M49 94h8v10h-8zm17 0h8v10h-8z" fill="#8bd0b2"/>
</svg>
